<svg width="26" height="21" viewBox="0 0 26 21" fill="none" xmlns="http://www.w3.org/2000/svg">
<path d="M22.9374 3.31126C24.0516 2.64892 24.8853 1.60599 25.2828 0.3772C24.2358 0.994913 23.0903 1.43005 21.8958 1.66379C20.2397 -0.0781999 17.6157 -0.50212 15.4901 0.628901C13.3645 1.75992 12.2636 4.16588 12.8024 6.50239C8.51371 6.28829 4.51808 4.27393 1.80973 0.960551C0.396301 3.3847 1.11859 6.48358 3.46037 8.04233C2.61356 8.01526 1.78553 7.78729 1.04532 7.37741C1.04532 7.39966 1.04532 7.42191 1.04532 7.44415C1.04581 9.96931 2.83563 12.1444 5.32479 12.6449C4.53933 12.8574 3.71543 12.8886 2.91596 12.7363C3.61599 14.8958 5.61757 16.3752 7.89894 16.4194C6.00945 17.894 3.67599 18.6936 1.27402 18.6897C0.848276 18.6903 0.422864 18.666 0 18.6168C2.43915 20.1753 5.27802 21.0026 8.17736 20.9996C12.211 21.0272 16.0875 19.446 18.9397 16.6097C21.7919 13.7734 23.3818 9.91876 23.3538 5.90791C23.3538 5.67803 23.3484 5.44939 23.3376 5.22198C24.3822 4.47129 25.2838 3.54132 26 2.47578C25.0268 2.90472 23.9945 3.18634 22.9374 3.31126Z" fill="black"/>
</svg>
